<?xml version="1.0" encoding="UTF-8"?>
<!DOCTYPE svg PUBLIC "-//W3C//DTD SVG 1.1//EN" "http://www.w3.org/Graphics/SVG/1.1/DTD/svg11.dtd">
<svg xmlns="http://www.w3.org/2000/svg" version="1.1" width="1000px" height="760px" style="shape-rendering:geometricPrecision; text-rendering:geometricPrecision; image-rendering:optimizeQuality; fill-rule:evenodd; clip-rule:evenodd" xmlns:xlink="http://www.w3.org/1999/xlink">
<g><path style="opacity:0.985" fill="#414041" d="M 342.5,-0.5 C 387.167,-0.5 431.833,-0.5 476.5,-0.5C 467.464,45.1785 458.631,90.8452 450,136.5C 467.139,90.9134 483.972,45.2467 500.5,-0.5C 595.167,-0.5 689.833,-0.5 784.5,-0.5C 785.109,4.81231 785.609,10.1456 786,15.5C 788.456,10.2588 790.623,4.92548 792.5,-0.5C 841.167,-0.5 889.833,-0.5 938.5,-0.5C 910.026,53.7797 881.526,108.113 853,162.5C 858.425,215.568 864.758,268.568 872,321.5C 914.292,321.511 956.792,321.511 999.5,321.5C 999.5,323.833 999.5,326.167 999.5,328.5C 992.549,358.583 986.216,388.916 980.5,419.5C 963.167,419.5 945.833,419.5 928.5,419.5C 926.834,429.499 925.167,439.499 923.5,449.5C 940.5,449.5 957.5,449.5 974.5,449.5C 968.195,481.856 961.695,514.189 955,546.5C 937.91,547.492 920.744,547.825 903.5,547.5C 901.833,556.833 900.167,566.167 898.5,575.5C 915.167,575.5 931.833,575.5 948.5,575.5C 942.295,607.859 935.962,640.192 929.5,672.5C 867.504,673.5 805.504,673.833 743.5,673.5C 760.269,589.262 777.269,505.095 794.5,421C 792.667,420.833 790.833,420.667 789,420.5C 786.698,420.6 784.698,421.267 783,422.5C 766.485,505.907 749.652,589.24 732.5,672.5C 652.167,673.833 571.833,673.833 491.5,672.5C 492.593,668.892 492.76,665.225 492,661.5C 490.987,665.22 489.82,668.886 488.5,672.5C 408.169,673.5 327.836,673.833 247.5,673.5C 264.167,589.163 280.834,504.829 297.5,420.5C 294.5,420.5 291.5,420.5 288.5,420.5C 285.09,438.551 281.423,456.551 277.5,474.5C 268.184,475.332 258.851,475.832 249.5,476C 264.101,490.469 269.934,507.969 267,528.5C 262.205,551.475 257.538,574.475 253,597.5C 250.485,614.384 244.818,630.051 236,644.5C 225.351,657.473 211.851,665.973 195.5,670C 182.328,672.908 168.995,674.575 155.5,675C 132.167,675.667 108.833,675.667 85.5,675C 65.4757,674.996 46.4757,670.663 28.5,662C 10.2332,648.939 2.73323,631.106 6,608.5C 11.6375,573.646 18.3041,538.979 26,504.5C 36.0898,503.679 46.2565,503.179 56.5,503C 43.7303,490.618 37.0636,475.451 36.5,457.5C 39.9106,434.704 44.0773,412.037 49,389.5C 58.2288,347.269 84.3955,324.769 127.5,322C 145.842,320.953 164.175,319.786 182.5,318.5C 180.827,314.648 179.661,310.648 179,306.5C 178.333,298.167 178.333,289.833 179,281.5C 185.042,247 191.875,212.667 199.5,178.5C 235.16,177.5 270.827,177.167 306.5,177.5C 318.377,118.116 330.377,58.7831 342.5,-0.5 Z M 650.5,28.5 C 658.094,79.6557 665.427,130.989 672.5,182.5C 663.925,199.984 655.091,217.318 646,234.5C 647.395,165.838 648.895,97.1712 650.5,28.5 Z M 434.5,418.5 C 440.355,419.46 446.021,419.793 451.5,419.5C 439.667,451.167 427.833,482.833 416,514.5C 421.835,482.488 428.002,450.488 434.5,418.5 Z M 630.5,418.5 C 636.334,419.813 642.167,419.813 648,418.5C 641.604,453.148 634.938,487.815 628,522.5C 628.093,487.807 628.927,453.141 630.5,418.5 Z"/></g>
<g><path style="opacity:1" fill="#5d433f" d="M 362.5,23.5 C 390.662,22.502 418.995,22.1687 447.5,22.5C 447.784,24.4147 447.451,26.0813 446.5,27.5C 446.5,26.1667 446.5,24.8333 446.5,23.5C 418.5,23.5 390.5,23.5 362.5,23.5 Z"/></g>
<g><path style="opacity:1" fill="#ba2d2b" d="M 519.5,23.5 C 553.5,23.5 587.5,23.5 621.5,23.5C 621.802,26.0593 621.468,28.3926 620.5,30.5C 620.5,28.5 620.5,26.5 620.5,24.5C 586.663,24.8316 552.996,24.4983 519.5,23.5 Z"/></g>
<g><path style="opacity:1" fill="#b4312c" d="M 764.5,31.5 C 763.532,29.3926 763.198,27.0593 763.5,24.5C 735.5,24.5 707.5,24.5 679.5,24.5C 679.5,25.8333 679.5,27.1667 679.5,28.5C 678.549,27.0813 678.216,25.4147 678.5,23.5C 707.167,23.5 735.833,23.5 764.5,23.5C 764.5,26.1667 764.5,28.8333 764.5,31.5 Z"/></g>
<g><path style="opacity:1" fill="#dd2027" d="M 519.5,23.5 C 552.996,24.4983 586.663,24.8316 620.5,24.5C 620.5,26.5 620.5,28.5 620.5,30.5C 620.5,35.5 620.5,40.5 620.5,45.5C 619.509,39.021 619.176,32.3543 619.5,25.5C 585.278,24.851 551.278,25.5176 517.5,27.5C 517.229,25.6203 517.896,24.287 519.5,23.5 Z"/></g>
<g><path style="opacity:1" fill="#cb2228" d="M 362.5,23.5 C 390.5,23.5 418.5,23.5 446.5,23.5C 446.5,24.8333 446.5,26.1667 446.5,27.5C 429.687,107.714 413.52,188.047 398,268.5C 395.564,280.248 391.897,291.581 387,302.5C 379.523,313.996 369.023,321.163 355.5,324C 315.908,329.04 276.241,329.707 236.5,326C 210.028,323.864 198.861,309.697 203,283.5C 208.206,256.471 213.539,229.471 219,202.5C 245.767,201.172 272.601,201.172 299.5,202.5C 295.497,223.185 291.33,243.851 287,264.5C 284.084,274.569 287.75,279.236 298,278.5C 305.503,279.585 310.503,276.585 313,269.5C 329.334,187.329 345.834,105.329 362.5,23.5 Z"/></g>
<g><path style="opacity:1" fill="#cb2228" d="M 620.5,45.5 C 618,139.162 615.667,232.829 613.5,326.5C 586.833,326.5 560.167,326.5 533.5,326.5C 534.962,306.501 536.628,286.501 538.5,266.5C 526.482,266.168 514.482,266.501 502.5,267.5C 496.358,287.056 490.358,306.722 484.5,326.5C 457.825,326.833 431.158,326.5 404.5,325.5C 441.673,225.848 479.34,126.515 517.5,27.5C 551.278,25.5176 585.278,24.851 619.5,25.5C 619.176,32.3543 619.509,39.021 620.5,45.5 Z"/></g>
<g><path style="opacity:1" fill="#cb2228" d="M 764.5,31.5 C 766.394,59.1775 768.394,86.8441 770.5,114.5C 783.829,85.1754 797.162,55.8421 810.5,26.5C 838.5,25.1667 866.5,25.1667 894.5,26.5C 873.255,67.3249 851.755,107.992 830,148.5C 827.271,153.288 825.105,158.288 823.5,163.5C 830.253,218.527 837.253,273.527 844.5,328.5C 815.833,328.5 787.167,328.5 758.5,328.5C 757.404,303.312 755.737,278.312 753.5,253.5C 753.828,248.125 753.495,242.792 752.5,237.5C 751.893,237.624 751.56,237.957 751.5,238.5C 738.701,267.554 725.701,296.554 712.5,325.5C 684.173,326.667 655.839,326.833 627.5,326C 651.461,281.246 675.294,236.413 699,191.5C 693.079,137.133 686.579,82.7994 679.5,28.5C 679.5,27.1667 679.5,25.8333 679.5,24.5C 707.5,24.5 735.5,24.5 763.5,24.5C 763.198,27.0593 763.532,29.3926 764.5,31.5 Z"/></g>
<g><path style="opacity:1" fill="#e49c86" d="M 373.5,40.5 C 391.338,39.1726 409.338,39.1726 427.5,40.5C 427.376,41.1067 427.043,41.44 426.5,41.5C 409.008,40.5033 391.341,40.1699 373.5,40.5 Z"/></g>
<g><path style="opacity:1" fill="#dd846c" d="M 527.5,40.5 C 552.995,39.5022 578.661,39.1689 604.5,39.5C 604.818,44.0323 604.485,48.3656 603.5,52.5C 603.5,48.5 603.5,44.5 603.5,40.5C 578.167,40.5 552.833,40.5 527.5,40.5 Z"/></g>
<g><path style="opacity:1" fill="#fdf9f8" d="M 373.5,40.5 C 391.341,40.1699 409.008,40.5033 426.5,41.5C 425.833,45.1667 425.167,48.8333 424.5,52.5C 410.167,52.5 395.833,52.5 381.5,52.5C 366.479,127.44 351.645,202.44 337,277.5C 333.225,301.255 319.392,311.088 295.5,307C 286.542,304.709 281.042,299.209 279,290.5C 281.819,292.669 284.986,294.169 288.5,295C 301.075,297.389 311.908,294.222 321,285.5C 323.384,281.675 325.384,277.675 327,273.5C 342.569,195.823 358.069,118.157 373.5,40.5 Z"/></g>
<g><path style="opacity:1" fill="#fefbfa" d="M 527.5,40.5 C 552.833,40.5 578.167,40.5 603.5,40.5C 603.5,44.5 603.5,48.5 603.5,52.5C 580.824,52.167 558.157,52.5003 535.5,53.5C 503.144,139.535 470.811,225.535 438.5,311.5C 434.298,311.817 430.298,311.483 426.5,310.5C 459.765,220.374 493.432,130.374 527.5,40.5 Z"/></g>
<g><path style="opacity:1" fill="#d2523f" d="M 817.5,42.5 C 834.005,41.1731 850.671,41.1731 867.5,42.5C 867.376,43.1067 867.043,43.44 866.5,43.5C 850.342,42.5036 834.009,42.1702 817.5,42.5 Z"/></g>
<g><path style="opacity:1" fill="#fefaf9" d="M 746.5,51.5 C 746.5,52.5 746.5,53.5 746.5,54.5C 734.988,54.1719 723.654,54.5052 712.5,55.5C 718.417,101.002 724.417,146.502 730.5,192C 709.484,233.865 687.818,275.365 665.5,316.5C 661.705,314.769 658.038,312.769 654.5,310.5C 675.925,270.812 696.925,230.979 717.5,191C 710.965,141.883 704.965,92.7168 699.5,43.5C 715.152,42.5006 730.819,42.1673 746.5,42.5C 746.5,45.5 746.5,48.5 746.5,51.5 Z"/></g>
<g><path style="opacity:1" fill="#fefbfa" d="M 817.5,42.5 C 834.009,42.1702 850.342,42.5036 866.5,43.5C 864.853,46.7294 863.186,50.0627 861.5,53.5C 848.5,54.1667 835.5,54.8333 822.5,55.5C 808.167,82.8333 793.833,110.167 779.5,137.5C 777.33,135.914 774.996,134.58 772.5,133.5C 771.417,132.635 771.251,131.635 772,130.5C 787.45,101.266 802.617,71.9322 817.5,42.5 Z"/></g>
<g><path style="opacity:1" fill="#d6664f" d="M 746.5,51.5 C 747.434,52.5676 747.768,53.901 747.5,55.5C 735.833,55.5 724.167,55.5 712.5,55.5C 723.654,54.5052 734.988,54.1719 746.5,54.5C 746.5,53.5 746.5,52.5 746.5,51.5 Z"/></g>
<g><path style="opacity:1" fill="#fef9f8" d="M 565.5,246.5 C 544.66,246.831 523.993,246.497 503.5,245.5C 504.495,242.179 505.495,238.846 506.5,235.5C 523.731,234.827 540.897,234.16 558,233.5C 561.765,188.448 565.932,143.448 570.5,98.5C 573.5,98.5 576.5,98.5 579.5,98.5C 575.479,148.038 570.812,197.372 565.5,246.5 Z"/></g>
<g><path style="opacity:1" fill="#414041" d="M 552.5,100.5 C 553.5,100.5 554.5,100.5 555.5,100.5C 551.67,139.458 548.337,178.458 545.5,217.5C 536.167,217.5 526.833,217.5 517.5,217.5C 528.559,178.323 540.226,139.323 552.5,100.5 Z"/></g>
<g><path style="opacity:1" fill="#fefbfa" d="M 230.5,218.5 C 246.837,218.333 263.17,218.5 279.5,219C 278.136,222.683 277.469,226.516 277.5,230.5C 264.5,230.5 251.5,230.5 238.5,230.5C 232.935,256.327 228.268,282.327 224.5,308.5C 222.587,307.627 220.753,306.627 219,305.5C 217.396,297.27 217.063,288.937 218,280.5C 222.363,259.852 226.53,239.185 230.5,218.5 Z"/></g>
<g><path style="opacity:1" fill="#fdf9f7" d="M 763.5,236.5 C 766.5,236.5 769.5,236.5 772.5,236.5C 775.753,262.11 778.42,287.776 780.5,313.5C 777.5,313.5 774.5,313.5 771.5,313.5C 769.417,287.758 766.751,262.091 763.5,236.5 Z"/></g>
<g><path style="opacity:1" fill="#cf4636" d="M 503.5,245.5 C 523.993,246.497 544.66,246.831 565.5,246.5C 544.663,247.828 523.663,247.828 502.5,246.5C 502.624,245.893 502.957,245.56 503.5,245.5 Z"/></g>
<g><path style="opacity:1" fill="#67423c" d="M 751.5,238.5 C 751.56,237.957 751.893,237.624 752.5,237.5C 753.495,242.792 753.828,248.125 753.5,253.5C 752.833,248.5 752.167,243.5 751.5,238.5 Z"/></g>
<g><path style="opacity:1" fill="#fdf4f1" d="M 558.5,311.5 C 555.5,311.5 552.5,311.5 549.5,311.5C 549.5,309.5 549.5,307.5 549.5,305.5C 550.516,292.495 551.682,279.495 553,266.5C 555.804,264.656 558.97,263.989 562.5,264.5C 561.629,280.207 560.296,295.873 558.5,311.5 Z"/></g>
<g><path style="opacity:1" fill="#dd846c" d="M 426.5,310.5 C 430.298,311.483 434.298,311.817 438.5,311.5C 434.317,312.811 429.984,312.811 425.5,311.5C 425.624,310.893 425.957,310.56 426.5,310.5 Z"/></g>
<g><path style="opacity:1" fill="#de856d" d="M 549.5,305.5 C 549.5,307.5 549.5,309.5 549.5,311.5C 552.5,311.5 555.5,311.5 558.5,311.5C 555.375,312.479 552.042,312.813 548.5,312.5C 548.198,309.941 548.532,307.607 549.5,305.5 Z"/></g>
<g><path style="opacity:1" fill="#cb2228" d="M 254.5,447.5 C 228.995,447.831 203.661,447.498 178.5,446.5C 180.862,434.462 183.362,422.462 186,410.5C 189.072,393.241 181.905,386.408 164.5,390C 156.553,393.619 152.053,399.786 151,408.5C 148.875,418.79 146.875,429.124 145,439.5C 143.474,448.281 146.641,454.781 154.5,459C 176.952,468.726 199.285,478.726 221.5,489C 234.392,496.95 240.225,508.45 239,523.5C 233.61,548.119 228.61,572.786 224,597.5C 222.395,612.351 216.228,624.851 205.5,635C 193.082,641.773 179.748,645.439 165.5,646C 135.167,648 104.833,648 74.5,646C 66.7683,645.054 59.1016,643.72 51.5,642C 42.7221,639.709 37.2221,634.209 35,625.5C 34.3333,618.5 34.3333,611.5 35,604.5C 39.6494,580.521 44.316,556.521 49,532.5C 74.759,531.505 100.592,531.172 126.5,531.5C 122.062,551.359 118.395,571.359 115.5,591.5C 114.56,598.214 117.227,602.714 123.5,605C 137.415,608.136 146.249,602.969 150,589.5C 152.855,572.411 156.189,555.411 160,538.5C 161.637,530.275 158.804,524.108 151.5,520C 127.629,509.379 103.962,498.379 80.5,487C 67.9818,477.118 63.1485,464.284 66,448.5C 70.0103,427.723 74.3437,407.057 79,386.5C 83.2104,371.521 92.3771,361.021 106.5,355C 130.47,349.143 154.803,346.976 179.5,348.5C 200.943,347.896 222.277,349.062 243.5,352C 258.502,354.331 266.502,362.998 267.5,378C 263.1,401.168 258.766,424.335 254.5,447.5 Z"/></g>
<g><path style="opacity:1" fill="#5d433f" d="M 296.5,350.5 C 351.664,349.501 406.997,349.168 462.5,349.5C 462.737,350.791 462.404,351.791 461.5,352.5C 406.843,350.504 351.843,349.837 296.5,350.5 Z"/></g>
<g><path style="opacity:1" fill="#5e433f" d="M 647.5,350.5 C 702.664,349.501 757.997,349.168 813.5,349.5C 813.737,350.791 813.404,351.791 812.5,352.5C 757.843,350.504 702.843,349.837 647.5,350.5 Z"/></g>
<g><path style="opacity:1" fill="#cb2228" d="M 296.5,350.5 C 351.843,349.837 406.843,350.504 461.5,352.5C 459.02,365.734 456.353,378.901 453.5,392C 438.592,392.175 423.759,392.675 409,393.5C 392.388,477.164 375.554,560.83 358.5,644.5C 332.811,645.157 307.478,644.491 282.5,642.5C 298.986,559.235 315.653,476.068 332.5,393C 317.837,392.5 303.17,392.333 288.5,392.5C 291.17,378.488 293.837,364.488 296.5,350.5 Z"/></g>
<g><path style="opacity:1" fill="#cb2228" d="M 505.5,350.5 C 538.833,350.5 572.167,350.5 605.5,350.5C 602.922,448.828 600.589,547.161 598.5,645.5C 572.167,645.5 545.833,645.5 519.5,645.5C 521.368,626.151 523.368,606.817 525.5,587.5C 513.586,587.179 501.753,587.512 490,588.5C 483.877,607.037 478.044,625.704 472.5,644.5C 446.5,645.833 420.5,645.833 394.5,644.5C 431.911,546.594 468.911,448.594 505.5,350.5 Z"/></g>
<g><path style="opacity:1" fill="#cb2228" d="M 647.5,350.5 C 702.843,349.837 757.843,350.504 812.5,352.5C 809.833,365.833 807.167,379.167 804.5,392.5C 789.588,392.176 774.755,392.509 760,393.5C 743.491,477.544 726.658,561.544 709.5,645.5C 683.825,645.833 658.158,645.5 632.5,644.5C 649.58,560.874 666.58,477.207 683.5,393.5C 668.848,392.501 654.182,392.167 639.5,392.5C 641.536,378.321 644.203,364.321 647.5,350.5 Z"/></g>
<g><path style="opacity:1" fill="#cb2228" d="M 889.5,476.5 C 888.957,476.56 888.624,476.893 888.5,477.5C 905.662,478.167 922.662,478.833 939.5,479.5C 936.834,492.832 934.167,506.165 931.5,519.5C 914.487,519.167 897.487,519.501 880.5,520.5C 874.454,548.064 868.787,575.731 863.5,603.5C 880.167,604.167 896.833,604.833 913.5,605.5C 911.554,618.566 909.22,631.566 906.5,644.5C 863.663,644.832 820.997,644.499 778.5,643.5C 797.829,545.857 817.162,448.19 836.5,350.5C 879.501,350.333 922.501,350.5 965.5,351C 962.259,364.374 959.592,377.874 957.5,391.5C 940.167,391.5 922.833,391.5 905.5,391.5C 899.652,419.742 894.318,448.075 889.5,476.5 Z"/></g>
<g><path style="opacity:1" fill="#fdf8f7" d="M 145.5,359.5 C 167.503,359.333 189.503,359.5 211.5,360C 219.188,360.43 226.854,361.097 234.5,362C 240.495,362.582 246.162,364.248 251.5,367C 255.035,369.707 256.202,373.207 255,377.5C 247.12,374.658 238.954,373.158 230.5,373C 201.833,372.333 173.167,372.333 144.5,373C 134.101,373.679 124.101,376.013 114.5,380C 107.082,384.647 101.916,391.147 99,399.5C 92.2716,424.474 87.6049,449.807 85,475.5C 79.6003,470.533 76.767,464.366 76.5,457C 79.9174,438.161 83.4174,419.328 87,400.5C 88.5786,393.311 90.9119,386.311 94,379.5C 98.4199,372.411 104.587,367.577 112.5,365C 123.476,362.173 134.476,360.34 145.5,359.5 Z"/></g>
<g><path style="opacity:1" fill="#ebb7a5" d="M 447.5,363.5 C 400.264,362.17 352.931,362.17 305.5,363.5C 328.991,362.167 352.824,361.5 377,361.5C 400.833,361.833 424.667,362.167 448.5,362.5C 448.376,363.107 448.043,363.44 447.5,363.5 Z"/></g>
<g><path style="opacity:1" fill="#ebbbaa" d="M 798.5,363.5 C 751.264,362.17 703.931,362.17 656.5,363.5C 679.991,362.167 703.824,361.5 728,361.5C 751.833,361.833 775.667,362.167 799.5,362.5C 799.376,363.107 799.043,363.44 798.5,363.5 Z"/></g>
<g><path style="opacity:1" fill="#ebb8a6" d="M 846.5,362.5 C 881.336,361.17 916.336,361.17 951.5,362.5C 951.376,363.107 951.043,363.44 950.5,363.5C 916.004,362.502 881.337,362.168 846.5,362.5 Z"/></g>
<g><path style="opacity:1" fill="#fefaf8" d="M 447.5,363.5 C 447.218,366.91 446.551,370.243 445.5,373.5C 401.837,374.333 358.17,374.833 314.5,375C 313.594,376.699 313.261,378.533 313.5,380.5C 309.833,380.5 306.167,380.5 302.5,380.5C 303.66,374.86 304.66,369.193 305.5,363.5C 352.931,362.17 400.264,362.17 447.5,363.5 Z"/></g>
<g><path style="opacity:1" fill="#fefbfa" d="M 514.5,362.5 C 539.833,362.5 565.167,362.5 590.5,362.5C 590.5,366.167 590.5,369.833 590.5,373.5C 567.994,373.169 545.66,373.503 523.5,374.5C 490.835,460.212 458.335,546.212 426,632.5C 421.934,633.464 417.767,633.797 413.5,633.5C 446.585,542.908 480.251,452.575 514.5,362.5 Z"/></g>
<g><path style="opacity:1" fill="#fdf9f8" d="M 798.5,363.5 C 798.218,366.91 797.551,370.243 796.5,373.5C 752.505,374.5 708.505,374.833 664.5,374.5C 664.5,376.5 664.5,378.5 664.5,380.5C 660.833,380.5 657.167,380.5 653.5,380.5C 654.628,374.859 655.628,369.192 656.5,363.5C 703.931,362.17 751.264,362.17 798.5,363.5 Z"/></g>
<g><path style="opacity:1" fill="#fefaf9" d="M 846.5,362.5 C 881.337,362.168 916.004,362.502 950.5,363.5C 950.037,366.482 949.704,369.482 949.5,372.5C 918.069,373.16 886.736,373.826 855.5,374.5C 838.091,460.044 820.591,545.71 803,631.5C 799.851,633.362 796.351,634.029 792.5,633.5C 809.986,543.069 827.986,452.735 846.5,362.5 Z"/></g>
<g><path style="opacity:1" fill="#ecbdac" d="M 514.5,362.5 C 539.995,361.502 565.661,361.169 591.5,361.5C 591.5,365.833 591.5,370.167 591.5,374.5C 568.833,374.5 546.167,374.5 523.5,374.5C 545.66,373.503 567.994,373.169 590.5,373.5C 590.5,369.833 590.5,366.167 590.5,362.5C 565.167,362.5 539.833,362.5 514.5,362.5 Z"/></g>
<g><path style="opacity:1" fill="#ecbdac" d="M 949.5,372.5 C 918.518,374.493 887.184,375.159 855.5,374.5C 886.736,373.826 918.069,373.16 949.5,372.5 Z"/></g>
<g><path style="opacity:1" fill="#fdf9f7" d="M 343.5,393.5 C 347.167,393.5 350.833,393.5 354.5,393.5C 338.35,473.084 322.516,552.751 307,632.5C 303.214,633.795 299.38,633.795 295.5,632.5C 312.296,552.985 328.296,473.319 343.5,393.5 Z"/></g>
<g><path style="opacity:1" fill="#fdf8f6" d="M 694.5,393.5 C 698.167,393.5 701.833,393.5 705.5,393.5C 689.668,472.828 673.835,552.161 658,631.5C 654.506,633.377 650.673,634.044 646.5,633.5C 663.142,553.624 679.142,473.624 694.5,393.5 Z"/></g>
<g><path style="opacity:1" fill="#fdf7f4" d="M 198.5,396.5 C 206.054,403.136 208.554,411.469 206,421.5C 204.584,426.412 203.751,431.412 203.5,436.5C 199.833,436.5 196.167,436.5 192.5,436.5C 195.665,423.34 197.665,410.006 198.5,396.5 Z"/></g>
<g><path style="opacity:1" fill="#fdf8f6" d="M 553.5,567.5 C 532.66,567.831 511.993,567.497 491.5,566.5C 491.792,562.793 492.792,559.293 494.5,556C 511.497,555.5 528.497,555.333 545.5,555.5C 548.906,510.445 552.906,465.445 557.5,420.5C 560.5,420.5 563.5,420.5 566.5,420.5C 562.828,469.557 558.495,518.557 553.5,567.5 Z"/></g>
<g><path style="opacity:1" fill="#414041" d="M 538.5,425.5 C 539.5,425.5 540.5,425.5 541.5,425.5C 538.26,463.528 534.927,501.528 531.5,539.5C 522.5,539.5 513.5,539.5 504.5,539.5C 515.657,501.371 526.99,463.371 538.5,425.5 Z"/></g>
<g><path style="opacity:1" fill="#5f433f" d="M 178.5,446.5 C 203.661,447.498 228.995,447.831 254.5,447.5C 228.997,448.829 203.33,448.829 177.5,447.5C 177.624,446.893 177.957,446.56 178.5,446.5 Z"/></g>
<g><path style="opacity:1" fill="#fdf8f6" d="M 143.5,465.5 C 165.3,476.732 187.634,486.898 210.5,496C 217.973,499.639 223.639,505.139 227.5,512.5C 204.149,502.176 180.482,491.676 156.5,481C 150.486,477.16 146.153,471.994 143.5,465.5 Z"/></g>
<g><path style="opacity:1" fill="#78423a" d="M 889.5,476.5 C 906.338,477.167 923.338,477.833 940.5,478.5C 940.376,479.107 940.043,479.44 939.5,479.5C 922.662,478.833 905.662,478.167 888.5,477.5C 888.624,476.893 888.957,476.56 889.5,476.5 Z"/></g>
<g><path style="opacity:1" fill="#fdfaf8" d="M 923.5,501.5 C 909.99,501.829 896.656,501.496 883.5,500.5C 883.594,496.864 884.261,493.364 885.5,490C 898.829,489.5 912.163,489.333 925.5,489.5C 925.218,493.574 924.552,497.574 923.5,501.5 Z"/></g>
<g><path style="opacity:1" fill="#df8d75" d="M 883.5,500.5 C 896.656,501.496 909.99,501.829 923.5,501.5C 909.994,502.826 896.328,502.826 882.5,501.5C 882.624,500.893 882.957,500.56 883.5,500.5 Z"/></g>
<g><path style="opacity:1" fill="#fdf8f7" d="M 171.5,527.5 C 177.252,532.22 180.252,538.387 180.5,546C 177.023,568.052 172.523,589.886 167,611.5C 161.292,624.364 151.292,630.364 137,629.5C 125.217,629.359 117.05,623.859 112.5,613C 115.275,613.374 117.942,614.374 120.5,616C 141.395,620.643 154.895,612.809 161,592.5C 165.862,571.03 169.362,549.363 171.5,527.5 Z"/></g>
<g><path style="opacity:1" fill="#fdf6f4" d="M 54.5,619.5 C 53.8333,622.833 53.1667,626.167 52.5,629.5C 49.1284,628.295 46.9617,625.961 46,622.5C 45.3333,616.833 45.3333,611.167 46,605.5C 50.4912,584.544 54.6578,563.544 58.5,542.5C 76.5,542.5 94.5,542.5 112.5,542.5C 111.673,546.807 111.007,551.14 110.5,555.5C 95.8333,555.5 81.1667,555.5 66.5,555.5C 62.1134,576.766 58.1134,598.099 54.5,619.5 Z"/></g>
<g><path style="opacity:1" fill="#ebbbaa" d="M 491.5,566.5 C 511.993,567.497 532.66,567.831 553.5,567.5C 532.663,568.828 511.663,568.828 490.5,567.5C 490.624,566.893 490.957,566.56 491.5,566.5 Z"/></g>
<g><path style="opacity:1" fill="#fdf8f6" d="M 540.5,586.5 C 543.5,586.5 546.5,586.5 549.5,586.5C 548.431,602.2 547.098,617.867 545.5,633.5C 542.5,633.5 539.5,633.5 536.5,633.5C 537.256,617.782 538.59,602.116 540.5,586.5 Z"/></g>
<g><path style="opacity:1" fill="#923e34" d="M 863.5,603.5 C 880.513,603.167 897.513,603.501 914.5,604.5C 914.376,605.107 914.043,605.44 913.5,605.5C 896.833,604.833 880.167,604.167 863.5,603.5 Z"/></g>
<g><path style="opacity:1" fill="#fefcfb" d="M 859.5,615.5 C 872.833,615.5 886.167,615.5 899.5,615.5C 898.979,619.481 898.646,623.481 898.5,627.5C 884.817,627.833 871.15,627.499 857.5,626.5C 858.681,622.928 859.348,619.262 859.5,615.5 Z"/></g>
<g><path style="opacity:1" fill="#e2937c" d="M 54.5,619.5 C 54.8226,623.226 54.4892,626.893 53.5,630.5C 52.8933,630.376 52.56,630.043 52.5,629.5C 53.1667,626.167 53.8333,622.833 54.5,619.5 Z"/></g>
<g><path style="opacity:1" fill="#9b3b32" d="M 282.5,642.5 C 307.478,644.491 332.811,645.157 358.5,644.5C 333.005,645.498 307.339,645.831 281.5,645.5C 281.263,644.209 281.596,643.209 282.5,642.5 Z"/></g>
<g><path style="opacity:1" fill="#9a3b32" d="M 778.5,643.5 C 820.997,644.499 863.663,644.832 906.5,644.5C 863.665,645.831 820.665,645.831 777.5,644.5C 777.624,643.893 777.957,643.56 778.5,643.5 Z"/></g>
<g><path style="opacity:0.921" fill="#414041" d="M -0.5,746.5 C -0.5,742.833 -0.5,739.167 -0.5,735.5C 0.552209,732.11 1.55221,728.61 2.5,725C 8.24107,724.572 13.9077,724.239 19.5,724C 17.8001,728.665 16.8001,733.499 16.5,738.5C 17.8221,738.67 18.9887,738.337 20,737.5C 23.3613,721.86 26.528,706.193 29.5,690.5C 35.5859,690.575 41.5859,690.409 47.5,690C 43.8451,708.273 39.6785,726.439 35,744.5C 32.5523,747.473 29.3856,748.973 25.5,749C 19.1667,749.667 12.8333,749.667 6.5,749C 3.96987,748.621 1.63653,747.787 -0.5,746.5 Z"/></g>
<g><path style="opacity:0.899" fill="#414041" d="M 141.5,689.5 C 142.043,689.56 142.376,689.893 142.5,690.5C 140.155,698.39 138.655,706.39 138,714.5C 140.167,710.167 142.333,705.833 144.5,701.5C 149.467,700.338 154.467,700.171 159.5,701C 155.239,708.189 151.239,715.522 147.5,723C 148.755,731.717 150.089,740.384 151.5,749C 146.177,749.499 140.844,749.666 135.5,749.5C 135.271,742.485 134.771,735.485 134,728.5C 132.667,735.167 131.333,741.833 130,748.5C 125.252,749.635 120.419,749.802 115.5,749C 119.815,729.59 123.815,710.09 127.5,690.5C 132.363,690.819 137.03,690.486 141.5,689.5 Z"/></g>
<g><path style="opacity:0.81" fill="#414141" d="M 319.5,689.5 C 320.097,689.735 320.43,690.235 320.5,691C 319.956,693.4 319.289,695.733 318.5,698C 313.467,698.829 308.467,698.662 303.5,697.5C 304.106,695.291 304.773,693.124 305.5,691C 310.351,690.826 315.018,690.326 319.5,689.5 Z"/></g>
<g><path style="opacity:0.902" fill="#414041" d="M 340.5,689.5 C 341.139,690.097 341.472,690.93 341.5,692C 337.509,711.12 333.843,730.286 330.5,749.5C 325.156,749.666 319.823,749.499 314.5,749C 318.816,729.589 322.816,710.089 326.5,690.5C 331.363,690.819 336.03,690.486 340.5,689.5 Z"/></g>
<g><path style="opacity:0.916" fill="#414041" d="M 444.5,711.5 C 447.931,713.602 451.598,715.435 455.5,717C 457.049,718.214 458.215,719.714 459,721.5C 458.66,728.213 457.66,734.88 456,741.5C 454.73,745.77 451.896,748.27 447.5,749C 438.438,749.881 429.438,749.548 420.5,748C 418.556,746.278 417.556,744.111 417.5,741.5C 418.631,735.845 419.631,730.178 420.5,724.5C 426.5,724.5 432.5,724.5 438.5,724.5C 434.925,722.713 431.259,720.879 427.5,719C 425.951,717.786 424.785,716.286 424,714.5C 424.006,709.457 424.672,704.457 426,699.5C 426.606,696.452 428.106,693.952 430.5,692C 441.195,688.754 451.862,688.754 462.5,692C 464.007,693.473 464.674,695.307 464.5,697.5C 463.701,702.157 463.035,706.824 462.5,711.5C 456.5,711.5 450.5,711.5 444.5,711.5 Z M 444.5,711.5 C 442.516,711.516 441.516,710.516 441.5,708.5C 442.064,706.181 442.564,703.847 443,701.5C 444.011,700.663 445.178,700.33 446.5,700.5C 446.341,704.291 445.675,707.958 444.5,711.5 Z M 438.5,724.5 C 440.722,724.559 441.722,725.725 441.5,728C 440.921,731.564 440.087,735.064 439,738.5C 437.174,739.841 436.007,739.341 435.5,737C 436.442,732.781 437.442,728.614 438.5,724.5 Z"/></g>
<g><path style="opacity:0.901" fill="#414041" d="M 486.5,689.5 C 487.497,689.47 488.164,689.97 488.5,691C 487.639,694.137 486.973,697.303 486.5,700.5C 488.167,700.5 489.833,700.5 491.5,700.5C 490.949,703.807 490.616,707.14 490.5,710.5C 488.533,710.739 486.699,710.406 485,709.5C 482.769,719.158 480.602,728.825 478.5,738.5C 479.62,740.596 481.12,740.93 483,739.5C 483.201,742.515 482.868,745.515 482,748.5C 475.78,750.011 469.78,749.344 464,746.5C 463.362,745.391 462.862,744.225 462.5,743C 464.771,732.147 467.104,721.314 469.5,710.5C 468.443,710.094 467.109,710.094 465.5,710.5C 465.911,707.447 466.577,704.447 467.5,701.5C 468.689,700.571 470.022,700.238 471.5,700.5C 471.723,697.216 472.39,694.049 473.5,691C 478.019,690.825 482.353,690.325 486.5,689.5 Z"/></g>
<g><path style="opacity:0.925" fill="#414041" d="M 633.5,689.5 C 634.497,689.47 635.164,689.97 635.5,691C 632.357,706.55 629.023,722.05 625.5,737.5C 627.347,738.83 628.847,738.497 630,736.5C 633,721.5 636,706.5 639,691.5C 644.667,690.833 650.333,690.167 656,689.5C 653.448,706.927 650.115,724.26 646,741.5C 644.103,746.871 640.27,749.371 634.5,749C 628.167,749.667 621.833,749.667 615.5,749C 612.089,748.883 609.589,747.383 608,744.5C 610.963,726.513 614.13,708.513 617.5,690.5C 623.026,690.821 628.36,690.488 633.5,689.5 Z"/></g>
<g><path style="opacity:0.804" fill="#414041" d="M 712.5,689.5 C 713.239,689.369 713.906,689.536 714.5,690C 713.518,692.738 712.852,695.572 712.5,698.5C 707.5,698.5 702.5,698.5 697.5,698.5C 697.575,695.794 697.908,693.127 698.5,690.5C 703.363,690.819 708.03,690.486 712.5,689.5 Z"/></g>
<g><path style="opacity:0.807" fill="#414041" d="M 877.5,689.5 C 878.376,689.369 879.043,689.702 879.5,690.5C 878.833,692.833 878.167,695.167 877.5,697.5C 872.5,698.833 867.5,698.833 862.5,697.5C 863.374,695.253 863.708,692.92 863.5,690.5C 868.363,690.819 873.03,690.486 877.5,689.5 Z"/></g>
<g><path style="opacity:0.901" fill="#414041" d="M 899.5,689.5 C 900.239,689.369 900.906,689.536 901.5,690C 900.261,693.364 899.594,696.864 899.5,700.5C 901.167,700.5 902.833,700.5 904.5,700.5C 904.089,703.553 903.423,706.553 902.5,709.5C 900.604,710.466 898.604,710.799 896.5,710.5C 894.833,720.5 893.167,730.5 891.5,740.5C 892.93,740.579 894.264,740.246 895.5,739.5C 895.833,740 896.167,740.5 896.5,741C 895.594,743.791 894.927,746.624 894.5,749.5C 889.434,749.66 884.434,749.16 879.5,748C 878.069,747.535 876.903,746.701 876,745.5C 877.243,733.777 879.076,722.111 881.5,710.5C 880.5,710.5 879.5,710.5 878.5,710.5C 878.833,707.167 879.167,703.833 879.5,700.5C 881.144,700.714 882.644,700.38 884,699.5C 884.696,696.522 885.196,693.522 885.5,690.5C 890.363,690.819 895.03,690.486 899.5,689.5 Z"/></g>
<g><path style="opacity:0.904" fill="#414041" d="M 347.5,690.5 C 352.875,690.172 358.208,690.505 363.5,691.5C 359.115,710.758 355.115,730.092 351.5,749.5C 346.5,749.5 341.5,749.5 336.5,749.5C 340.297,729.851 343.963,710.184 347.5,690.5 Z"/></g>
<g><path style="opacity:0.903" fill="#414041" d="M 534.5,690.5 C 539.5,690.5 544.5,690.5 549.5,690.5C 548.833,693.833 548.167,697.167 547.5,700.5C 549.167,700.5 550.833,700.5 552.5,700.5C 552.167,703.833 551.833,707.167 551.5,710.5C 549.533,710.739 547.699,710.406 546,709.5C 544.024,719.213 541.858,728.879 539.5,738.5C 540.62,740.596 542.12,740.93 544,739.5C 544.172,742.826 544.005,746.159 543.5,749.5C 538.101,749.691 532.767,749.191 527.5,748C 525.639,746.972 524.305,745.472 523.5,743.5C 526,732.17 528.167,720.836 530,709.5C 528.817,710.731 527.651,710.731 526.5,709.5C 527.167,706.833 527.833,704.167 528.5,701.5C 529.689,700.571 531.022,700.238 532.5,700.5C 533.04,697.135 533.706,693.802 534.5,690.5 Z"/></g>
<g><path style="opacity:0.905" fill="#414041" d="M 58.5,700.5 C 65.2305,700.226 71.8972,700.726 78.5,702C 79.7014,702.903 80.5348,704.069 81,705.5C 78.9611,720.201 76.4611,734.868 73.5,749.5C 67.9333,750.046 62.6,749.379 57.5,747.5C 53.6645,749.313 49.6645,749.813 45.5,749C 43.3333,748.167 41.8333,746.667 41,744.5C 41.093,739.033 42.093,733.699 44,728.5C 50.0107,723.548 56.8441,720.215 64.5,718.5C 65.8503,706.861 64.517,706.528 60.5,717.5C 55.5,718.833 50.5,718.833 45.5,717.5C 46.3561,713.409 47.5228,709.409 49,705.5C 51.6401,702.599 54.8068,700.932 58.5,700.5 Z M 59.5,729.5 C 60.6491,729.791 61.3158,730.624 61.5,732C 61.0788,734.185 60.5788,736.351 60,738.5C 59.2904,739.973 58.1238,740.64 56.5,740.5C 56.8721,736.628 57.8721,732.961 59.5,729.5 Z"/></g>
<g><path style="opacity:0.896" fill="#414041" d="M 96.5,700.5 C 103.23,700.226 109.897,700.726 116.5,702C 118.594,703.255 119.594,705.088 119.5,707.5C 118.615,712.145 117.948,716.811 117.5,721.5C 112.156,721.666 106.823,721.499 101.5,721C 103.208,717.262 103.542,713.428 102.5,709.5C 101.029,710.381 100.196,711.714 100,713.5C 98.415,722.095 96.5817,730.595 94.5,739C 95.5358,740.617 96.7025,740.784 98,739.5C 99.0278,735.527 99.8611,731.527 100.5,727.5C 105.5,727.5 110.5,727.5 115.5,727.5C 115.114,734.554 113.114,741.054 109.5,747C 101.691,749.435 93.6908,750.102 85.5,749C 83.481,748.55 81.6477,747.717 80,746.5C 80.438,733.634 82.438,720.967 86,708.5C 87.846,703.509 91.346,700.843 96.5,700.5 Z"/></g>
<g><path style="opacity:0.905" fill="#414041" d="M 169.5,700.5 C 176.23,700.226 182.897,700.726 189.5,702C 190.333,702.833 191.167,703.667 192,704.5C 192.579,708.947 192.079,713.28 190.5,717.5C 185.544,718.494 180.544,718.827 175.5,718.5C 176.509,715.473 176.509,712.473 175.5,709.5C 172.795,712.02 172.129,715.02 173.5,718.5C 177.458,720.43 181.458,722.263 185.5,724C 187.152,725.47 188.152,727.303 188.5,729.5C 187.795,735.842 185.795,741.676 182.5,747C 173.218,750.09 163.885,750.256 154.5,747.5C 153.031,745.808 152.365,743.808 152.5,741.5C 153.053,738.183 153.386,734.85 153.5,731.5C 158.875,731.172 164.208,731.505 169.5,732.5C 168.894,734.709 168.227,736.876 167.5,739C 168.536,740.617 169.703,740.784 171,739.5C 171.995,736.874 172.328,734.207 172,731.5C 168.27,729.477 164.437,727.644 160.5,726C 158.197,724.865 156.864,723.032 156.5,720.5C 157.069,714.889 158.569,709.556 161,704.5C 163.564,702.376 166.397,701.042 169.5,700.5 Z"/></g>
<g><path style="opacity:0.917" fill="#414041" d="M 205.5,700.5 C 210.511,700.334 215.511,700.501 220.5,701C 225.349,700.849 228.016,703.183 228.5,708C 226.511,719.947 224.011,731.78 221,743.5C 219.013,747.247 215.846,749.081 211.5,749C 206.167,749.667 200.833,749.667 195.5,749C 190.253,749.069 187.919,746.569 188.5,741.5C 190,728.831 192.833,716.498 197,704.5C 199.564,702.376 202.397,701.042 205.5,700.5 Z M 210.5,709.5 C 211.693,709.97 212.36,710.97 212.5,712.5C 211.064,720.179 209.564,727.846 208,735.5C 207.902,737.619 207.069,739.286 205.5,740.5C 204.5,740.167 203.833,739.5 203.5,738.5C 205.517,728.708 207.851,719.042 210.5,709.5 Z"/></g>
<g><path style="opacity:0.91" fill="#414041" d="M 245.5,700.5 C 246.75,700.577 247.583,701.244 248,702.5C 252.079,700.218 256.246,700.051 260.5,702C 262.726,703.62 264.06,705.786 264.5,708.5C 261.574,722.129 258.908,735.795 256.5,749.5C 251.5,749.5 246.5,749.5 241.5,749.5C 243.382,737.257 245.715,725.091 248.5,713C 248.37,711.941 247.87,711.108 247,710.5C 245.113,712.026 244.113,714.026 244,716.5C 241.766,727.501 239.6,738.501 237.5,749.5C 232.5,749.5 227.5,749.5 222.5,749.5C 225.757,733.549 228.757,717.549 231.5,701.5C 236.363,701.819 241.03,701.486 245.5,700.5 Z"/></g>
<g><path style="opacity:0.891" fill="#414041" d="M 265.5,700.5 C 270.5,700.5 275.5,700.5 280.5,700.5C 279.496,709.852 278.663,719.185 278,728.5C 280.812,719.234 283.312,709.9 285.5,700.5C 290.5,700.5 295.5,700.5 300.5,700.5C 294.5,716.833 288.5,733.167 282.5,749.5C 276.5,749.5 270.5,749.5 264.5,749.5C 265.233,733.177 265.566,716.844 265.5,700.5 Z"/></g>
<g><path style="opacity:0.889" fill="#414041" d="M 302.5,700.5 C 307.875,700.172 313.208,700.505 318.5,701.5C 315.038,717.476 311.705,733.476 308.5,749.5C 303.5,749.5 298.5,749.5 293.5,749.5C 296.886,733.235 299.886,716.901 302.5,700.5 Z"/></g>
<g><path style="opacity:0.906" fill="#414041" d="M 374.5,700.5 C 381.23,700.226 387.897,700.726 394.5,702C 396.152,703.47 397.152,705.303 397.5,707.5C 396.43,714.092 395.097,720.592 393.5,727C 387.175,727.5 380.842,727.666 374.5,727.5C 374.044,731.584 373.544,735.584 373,739.5C 374,740.833 375,740.833 376,739.5C 376.953,736.568 377.453,733.568 377.5,730.5C 382.844,730.334 388.177,730.501 393.5,731C 392.564,736.755 390.564,742.089 387.5,747C 379.691,749.435 371.691,750.102 363.5,749C 361.481,748.55 359.648,747.717 358,746.5C 358.476,733.643 360.476,720.976 364,708.5C 365.846,703.509 369.346,700.843 374.5,700.5 Z M 379.5,709.5 C 380.649,709.791 381.316,710.624 381.5,712C 381.079,714.185 380.579,716.351 380,718.5C 379.333,717.167 378.667,717.167 378,718.5C 377.404,715.314 377.904,712.314 379.5,709.5 Z"/></g>
<g><path style="opacity:0.91" fill="#414041" d="M 502.5,700.5 C 509.636,700.049 516.636,700.716 523.5,702.5C 524.192,703.025 524.692,703.692 525,704.5C 525.667,707.5 525.667,710.5 525,713.5C 522.826,725.198 520.492,736.864 518,748.5C 512.918,749.637 507.751,749.804 502.5,749C 503.696,748.346 503.696,747.846 502.5,747.5C 496.427,750.72 490.927,750.053 486,745.5C 485.686,739.234 486.853,733.234 489.5,727.5C 495.456,723.675 501.79,720.508 508.5,718C 509.227,715.876 509.894,713.709 510.5,711.5C 509.483,708.972 508.316,708.972 507,711.5C 506.338,713.813 505.838,716.146 505.5,718.5C 500.5,718.5 495.5,718.5 490.5,718.5C 490.099,709.242 494.099,703.242 502.5,700.5 Z M 504.5,729.5 C 505.586,729.62 506.253,730.287 506.5,731.5C 505.936,733.819 505.436,736.153 505,738.5C 503.211,741.179 502.045,741.013 501.5,738C 501.822,734.852 502.822,732.019 504.5,729.5 Z"/></g>
<g><path style="opacity:0.903" fill="#414041" d="M 566.5,700.5 C 571.844,700.334 577.177,700.501 582.5,701C 586.821,701.321 589.155,703.655 589.5,708C 588.011,714.434 587.011,720.934 586.5,727.5C 580.158,727.334 573.825,727.5 567.5,728C 566.5,731.667 565.5,735.333 564.5,739C 565.536,740.617 566.703,740.784 568,739.5C 568.953,736.568 569.453,733.568 569.5,730.5C 574.844,730.334 580.177,730.501 585.5,731C 584.418,735.156 583.252,739.322 582,743.5C 580.272,746.953 577.438,748.786 573.5,749C 567.5,749.667 561.5,749.667 555.5,749C 550.96,748.75 548.96,746.417 549.5,742C 551.28,730.764 553.447,719.597 556,708.5C 557.846,703.509 561.346,700.843 566.5,700.5 Z M 571.5,709.5 C 572.693,709.97 573.36,710.97 573.5,712.5C 573.308,714.577 572.808,716.577 572,718.5C 571.333,717.167 570.667,717.167 570,718.5C 569.404,715.314 569.904,712.314 571.5,709.5 Z"/></g>
<g><path style="opacity:0.908" fill="#414041" d="M 672.5,700.5 C 673.151,701.091 673.818,701.757 674.5,702.5C 678.737,700.02 683.07,699.854 687.5,702C 689.592,703.853 690.592,706.186 690.5,709C 688.152,722.242 685.485,735.409 682.5,748.5C 677.544,749.494 672.544,749.827 667.5,749.5C 669.472,738.807 671.639,728.14 674,717.5C 674.814,715.098 674.647,712.765 673.5,710.5C 672.029,711.381 671.196,712.714 671,714.5C 668.252,726.071 666.086,737.737 664.5,749.5C 659.156,749.666 653.823,749.499 648.5,749C 651.915,733.927 655.082,718.76 658,703.5C 662.716,701.898 667.55,700.898 672.5,700.5 Z"/></g>
<g><path style="opacity:0.89" fill="#414041" d="M 696.5,700.5 C 701.5,700.5 706.5,700.5 711.5,700.5C 708.371,716.811 705.371,733.144 702.5,749.5C 697.156,749.666 691.823,749.499 686.5,749C 690.381,732.971 693.715,716.804 696.5,700.5 Z"/></g>
<g><path style="opacity:0.889" fill="#414041" d="M 713.5,700.5 C 718.5,700.5 723.5,700.5 728.5,700.5C 727.332,709.832 726.499,719.166 726,728.5C 728.346,719.45 730.846,710.45 733.5,701.5C 738.5,700.167 743.5,700.167 748.5,701.5C 741.924,717.312 735.924,733.312 730.5,749.5C 724.5,749.5 718.5,749.5 712.5,749.5C 713.04,733.172 713.373,716.839 713.5,700.5 Z"/></g>
<g><path style="opacity:0.902" fill="#414041" d="M 760.5,700.5 C 767.23,700.226 773.897,700.726 780.5,702C 782.297,703.594 783.297,705.594 783.5,708C 782.279,714.157 781.113,720.323 780,726.5C 773.915,727.312 767.748,727.812 761.5,728C 760.5,731.667 759.5,735.333 758.5,739C 759.536,740.617 760.703,740.784 762,739.5C 762.696,736.522 763.196,733.522 763.5,730.5C 768.844,730.334 774.177,730.501 779.5,731C 778.418,735.156 777.252,739.322 776,743.5C 775.535,744.931 774.701,746.097 773.5,747C 765.691,749.435 757.691,750.102 749.5,749C 747.481,748.55 745.648,747.717 744,746.5C 744.476,733.643 746.476,720.976 750,708.5C 751.846,703.509 755.346,700.843 760.5,700.5 Z M 765.5,709.5 C 766.693,709.97 767.36,710.97 767.5,712.5C 767.308,714.577 766.808,716.577 766,718.5C 765.333,717.167 764.667,717.167 764,718.5C 763.404,715.314 763.904,712.314 765.5,709.5 Z"/></g>
<g><path style="opacity:0.9" fill="#414041" d="M 789.5,700.5 C 795.067,699.954 800.4,700.621 805.5,702.5C 812.923,698.717 817.923,700.717 820.5,708.5C 819.603,712.486 818.769,716.486 818,720.5C 813.599,721.467 809.099,721.8 804.5,721.5C 804.572,718.807 804.905,716.14 805.5,713.5C 804.733,709.765 803.566,709.765 802,713.5C 799.667,725.167 797.333,736.833 795,748.5C 789.886,749.804 784.719,749.804 779.5,748.5C 783.219,732.573 786.552,716.573 789.5,700.5 Z"/></g>
<g><path style="opacity:0.911" fill="#414041" d="M 839.5,700.5 C 843.472,701.108 847.472,701.608 851.5,702C 854.25,703.085 855.917,705.085 856.5,708C 855.511,711.447 854.844,714.947 854.5,718.5C 849.5,718.5 844.5,718.5 839.5,718.5C 839.575,715.794 839.908,713.127 840.5,710.5C 839.178,710.33 838.011,710.663 837,711.5C 836.749,713.433 836.249,715.266 835.5,717C 840.78,719.982 845.947,723.149 851,726.5C 853.733,742.926 846.9,750.593 830.5,749.5C 826.413,749.552 822.413,749.052 818.5,748C 816.848,746.53 815.848,744.697 815.5,742.5C 816.426,738.87 817.093,735.203 817.5,731.5C 822.5,731.5 827.5,731.5 832.5,731.5C 832.296,734.518 831.963,737.518 831.5,740.5C 832.675,740.719 833.675,740.386 834.5,739.5C 835.106,737.291 835.773,735.124 836.5,733C 831.257,730.022 826.09,726.855 821,723.5C 819.932,715.821 821.765,708.988 826.5,703C 830.94,702.034 835.273,701.201 839.5,700.5 Z"/></g>
<g><path style="opacity:0.889" fill="#414041" d="M 861.5,700.5 C 866.844,700.334 872.177,700.501 877.5,701C 873.851,717.076 870.518,733.243 867.5,749.5C 862.5,749.5 857.5,749.5 852.5,749.5C 855.629,733.189 858.629,716.856 861.5,700.5 Z"/></g>
<g><path style="opacity:0.893" fill="#414041" d="M 915.5,759.5 C 908.5,759.5 901.5,759.5 894.5,759.5C 894.963,756.518 895.296,753.518 895.5,750.5C 899.5,750.5 903.5,750.5 907.5,750.5C 907.333,734.163 907.5,717.83 908,701.5C 913.299,700.501 918.465,700.334 923.5,701C 921.311,710.03 920.145,719.196 920,728.5C 922.468,719.43 925.135,710.43 928,701.5C 933.079,700.361 937.912,700.361 942.5,701.5C 935.822,719.367 928.656,737.034 921,754.5C 919.27,756.402 917.437,758.069 915.5,759.5 Z"/></g>
<g><path style="opacity:0.657" fill="#414141" d="M 933.5,740.5 C 935.924,740.192 938.257,740.526 940.5,741.5C 938.827,743.523 938.16,745.856 938.5,748.5C 937.5,748.5 936.5,748.5 935.5,748.5C 935.635,745.583 934.968,742.916 933.5,740.5 Z"/></g>
<g><path style="opacity:0.696" fill="#414041" d="M 941.5,740.5 C 944.05,740.561 945.55,741.894 946,744.5C 946.112,741.553 947.612,740.22 950.5,740.5C 950.813,743.247 950.48,745.914 949.5,748.5C 948.262,744.689 947.596,744.689 947.5,748.5C 945.876,748.64 944.71,747.973 944,746.5C 943.692,747.308 943.192,747.975 942.5,748.5C 941.52,745.914 941.187,743.247 941.5,740.5 Z"/></g>
</svg>
