<?xml version="1.0" encoding="UTF-8" standalone="no"?>
<svg xmlns:rdf="http://www.w3.org/1999/02/22-rdf-syntax-ns#" xmlns="http://www.w3.org/2000/svg" xml:space="preserve" height="51.531" width="113.43" version="1.1" xmlns:cc="http://creativecommons.org/ns#" xmlns:dc="http://purl.org/dc/elements/1.1/" viewBox="0 0 113.43 51.530619"><g><path d="m77.304 0.8275s-0.95875 4.7094-1.3812 6.785c-0.294-1.5756-0.985-2.9213-2.073-4.0087-2.886-2.8857-7.336-3.0319-14.359-3.0319-8.9944 0-14.265 0.6625-17.214 5.7669l1.1188-5.5544h-20.345l-5.052 24.396h-14.505s-2.4881 12.189-2.4894 12.196c-0.46875 2.315-0.56688 4.0131-0.56688 5.03 0 2.8375 1.1881 4.6206 2.185 5.6175 2.8175 2.8175 7.465 3.0356 13.723 3.0356 10.36 0 15.591-0.81125 18.244-8.0006 0.155 2.0031 0.89062 3.6781 2.1981 4.985 2.8531 2.8531 7.3306 3.0588 14.366 3.0588 7.0275 0 11.538-0.19438 14.864-2.8781 1.7844-1.4225 2.7219-3.1412 3.3125-4.8938 0.21375 2.3425 1.2531 3.8638 2.1425 4.7531 2.8162 2.8162 7.2975 3.0188 14.344 3.0188 6.4006 0 11.029-0.000625 14.568-2.605 3.385-2.4406 4.0781-5.9156 4.7475-9.2775l7.735-38.392h-35.564z"/><path d="m59.486 4.8359c-11.434 0.0003-13.641 0.8687-15.156 8.5231l-0.965 4.848c-0.137 0.664-0.275 1.378-0.275 2.143 0 2.348 1.31 4.135 3.859 5.308l7.303 3.268c1.722 0.765 1.861 1.224 1.861 1.99 0 0.255-0.069 0.56-0.138 0.918l-1.245 6.176c-0.275 1.327-0.69 2.041-2.068 2.041-1.171 0-1.652-0.357-1.652-1.225 0-0.357 1.722-8.93 1.722-8.93h-11.714l-1.721 8.37c-0.414 1.99-0.485 3.316-0.485 3.98 0 4.236 3.859 4.594 12.334 4.594 6.201 0 9.993-0.155 12.198-1.942 1.929-1.53 2.204-3.723 2.824-6.632l1.584-7.758c0.137-0.613 0.277-1.225 0.277-1.889 0-2.245-1.447-4.031-4.341-5.256l-6.684-2.91c-1.516-0.664-1.93-1.174-1.93-1.889 0-0.46 0.07-0.817 0.139-1.021l0.758-3.93c0.275-1.276 0.758-2.041 2.136-2.041 1.172 0 1.653 0.357 1.653 1.225 0 0 0.001 0.254-0.137 0.816l-1.172 5.922h11.508l1.24-6.176c0.275-1.428 0.619-2.757 0.619-3.9313 0-4.3367-3.994-4.5917-12.328-4.5918h-0.004zm-32.945 0.211l-6.615 32.92c-0.276 1.276-0.55 2.041-2.135 2.041-1.171 0-1.654-0.306-1.654-1.174 0-0.408 0.07-0.714 0.138-0.867l1.721-8.524h-11.023l-1.7914 8.78c-0.4131 2.041-0.4824 3.469-0.4824 4.183 0 3.93 3.7208 4.389 11.645 4.389 11.92 0 13.64-1.019 15.156-8.572l6.686-33.176-11.645-0.0001zm54.244 0.0449l-6.754 33.174c-0.413 2.041-0.482 3.469-0.482 4.183 0 4.083 3.927 4.391 12.263 4.391 5.996 0 9.716-0.052 12.059-1.787 2.067-1.48 2.479-3.674 3.099-6.787l6.68-33.174-11.64-0.0002-6.61 32.918c-0.275 1.275-0.551 2.041-2.136 2.041-1.172 0-1.584-0.307-1.584-1.174 0-0.255-0.001-0.561 0.068-0.867l6.615-32.918-11.576-0.0002h-0.002z" fill="#cb2027" transform="translate(0 -.00018883)"/><path d="m59.49 6.9618c-11.29 0-11.878 0.7715-13.073 6.8115 0 0-0.96465 4.8487-0.96775 4.8662-0.12188 0.58625-0.23144 1.1584-0.23144 1.711 0 0.7019 0.15512 1.6501 1.2295 2.5332-0.07438-0.29875-0.09571-0.58205-0.09571-0.83205 0-0.5525 0.1102-1.1247 0.23144-1.711 0.0038-0.0175 0.96775-4.8662 0.96775-4.8662 1.1962-6.04 1.7832-6.8115 13.073-6.8115 3.2825 0 7.238 0.00315 9.0715 0.7119-0.011-0.8933-0.268-1.155-0.366-1.2532-1.16-1.16-5.9725-1.1602-9.84-1.1602zm-31.208 0.212c-1.3555 6.748-6.272 31.216-6.277 31.242-0.24062 1.1131-0.80295 3.7188-4.2148 3.7188-0.7125 0-1.706-0.07781-2.5322-0.6797 0.1675 0.65625 0.49054 1.1113 0.7793 1.3994 0.88 0.88 2.0692 0.98145 2.8867 0.98145 3.4112 0 3.9748-2.6062 4.2148-3.7188 0.0056-0.02625 4.9227-24.494 6.2785-31.241h5.828l0.34278-1.7012h-7.3055zm54.24 0.04297c-1.3788 6.773-6.407 31.472-6.406 31.47-0.3825 1.8906-0.43946 3.1683-0.43946 3.7627 0 0.8025 0.22625 1.0296 0.3125 1.1152 0.18125 0.18125 0.46824 0.33121 0.82325 0.45996 0.0069-0.63625 0.07973-1.863 0.43848-3.6367-0.0005 0.0019 5.0265-24.697 6.4055-31.47h5.7655l0.3418-1.7012h-7.241zm15.232 0c-1.3556 6.7475-6.2715 31.215-6.2775 31.241-0.24 1.1125-0.8036 3.7188-4.2148 3.7188-0.69375 0-1.6602-0.07633-2.4658-0.6582 0.13438 0.54625 0.39262 1.015 0.77635 1.3994 0.86125 0.8606 2.0242 0.95995 2.8242 0.95995 3.4112 0 3.9738-2.6056 4.2138-3.7188 0.0056-0.02625 4.922-24.494 6.2785-31.241h5.828l0.34277-1.7012h-7.3055zm-35.982 4.6367c0.07125 0.27812 0.11816 0.5896 0.11816 0.94335 0 0.18562-0.02485 0.5928-0.1836 1.2578l-0.6631 3.3526h1.4707l0.32715-1.6514c0.15812-0.665 0.1836-1.0728 0.1836-1.2578 0-1.1944-0.49453-1.9395-0.91015-2.3545-0.10938-0.10938-0.22528-0.20316-0.34278-0.29004zm-7.54 9.416c0.5075 1.7106 2.2429 2.4758 3.0566 2.832 0.004 0.0019 6.6875 2.9112 6.6875 2.9112 0.8394 0.35562 1.4432 0.7267 1.8858 1.0898-0.13375-0.6944-0.6905-1.8054-3.0205-2.791 0 0-6.684-2.9092-6.6875-2.9112-0.47-0.20562-1.25-0.549-1.9219-1.1308zm3.8535 8.4885c0.09813 0.345 0.15234 0.72725 0.15234 1.1572 0 0.42562-0.07531 0.8074-0.14844 1.1768 0 0-1.2719 6.336-1.2744 6.3495-0.19188 0.92375-0.7763 3.7364-4.1494 3.7364-0.4125 0-1.5732-0.0052-2.5264-0.70705 0.17062 0.6594 0.49816 1.1192 0.79005 1.4112 0.99625 0.9969 2.4074 0.99705 2.8711 0.99705 3.3731 0 3.9576-2.8126 4.1494-3.7364 0.0025-0.01375 1.2744-6.3495 1.2744-6.3495 0.0725-0.36938 0.14844-0.75115 0.14844-1.1768 0-1.3069-0.47898-2.1828-1.2871-2.8584zm-49.377 1.8115c-0.5206 2.5519-1.445 7.0755-1.4444 7.073-0.38312 1.8906-0.43946 3.1699-0.43946 3.7636 0 0.785 0.21875 1.0049 0.3125 1.0986 0.18312 0.1825 0.47199 0.33422 0.82325 0.46484 0.00875-0.64 0.0816-1.8635 0.43848-3.626-0.00065 0.0025 0.92275-4.5214 1.4434-7.073h5.21l0.34472-1.7012h-6.6885zm34.046 0.45117c-0.50375 2.4468-1.3724 6.6745-1.373 6.677-0.38125 1.8344-0.43848 3.0098-0.43848 3.5478 0 0.92 0.26125 1.1812 0.35938 1.2793 0.1775 0.17688 0.44762 0.32402 0.77635 0.45215 0-0.01062-0.001-0.01902-0.001-0.03027 0-0.5375 0.05625-1.7135 0.4375-3.5478 0-0.0025 0.87025-4.2296 1.374-6.676h5.8945l0.34766-1.7022h-7.377z" stroke="#fff" stroke-width=".1" fill="#fff"/></g></svg>
